<svg width="272" height="181" viewBox="0 0 272 181" fill="none" xmlns="http://www.w3.org/2000/svg">
<path d="M120.734 4.56055C128.13 3.2282 140.986 3.18614 148.993 4.4209L149.753 4.54492C172.081 8.37417 192.108 20.6598 205.787 38.9023L207.625 41.3535L213.797 41.6602C236.015 42.7626 245.608 44.2952 255.097 48.7881C259.465 50.8564 262.937 53.5329 265.102 56.9434C267.318 60.4331 267.978 64.4001 267.193 68.5879L267.194 68.5889C266.117 74.3395 261.927 79.9022 255.816 85.1533C249.626 90.4724 241.041 95.8339 230.369 101.102L221.802 105.33L220.42 110.878C218.452 118.773 216.845 123.197 213.553 129.701C213.052 130.691 212.599 131.722 212.281 132.562C212.134 132.951 212.029 133.267 211.962 133.497C212.017 133.797 212.103 134.219 212.217 134.76C212.452 135.874 212.795 137.417 213.224 139.285C214.079 143.016 215.262 147.99 216.564 153.303C217.873 158.642 219.032 163.538 219.844 167.128C220.249 168.919 220.573 170.405 220.786 171.465C220.891 171.988 220.977 172.446 221.033 172.798C221.059 172.963 221.09 173.174 221.107 173.384C221.115 173.475 221.13 173.675 221.119 173.914C221.114 174.027 221.099 174.264 221.034 174.554C221 174.707 220.821 175.541 220.084 176.276L220.085 176.277C219.403 176.958 218.641 177.174 218.351 177.245C217.987 177.335 217.668 177.358 217.464 177.365C217.047 177.38 216.651 177.339 216.347 177.297C215.712 177.208 215 177.039 214.319 176.825H214.317C214.317 176.825 214.303 176.82 214.268 176.811C214.236 176.801 214.192 176.788 214.137 176.772C214.026 176.742 213.881 176.703 213.701 176.655C213.342 176.56 212.866 176.437 212.284 176.288C211.121 175.991 209.558 175.6 207.704 175.141C203.998 174.223 199.147 173.04 194.051 171.814L176.656 167.631L172.934 169.302C134.376 186.6 91.2702 175.95 65.8749 142.755L65.8739 142.754L63.4862 139.633H60.4931C57.7148 139.633 50.5621 139.153 44.5878 138.585C33.0448 137.488 23.8354 135.541 17.1024 132.577C10.3659 129.612 5.5951 125.382 4.00479 119.492C2.09957 112.434 5.8234 105.245 12.1796 98.8164C18.6603 92.2622 28.6367 85.6734 41.3925 79.4932L49.6181 75.5068L50.4062 71.8262C52.4344 62.3438 56.8558 51.648 62.3241 42.9219L62.6034 42.4883C64.0872 40.2389 66.853 36.8113 69.5858 33.6572C72.4957 30.2988 75.6945 26.8728 77.6571 25.2295C90.8717 14.1632 104.876 7.41736 120.734 4.56055ZM143.215 36.0713C134.658 35.2621 133.905 35.2684 129.699 35.7539C107.569 38.3072 89.714 53.1128 82.8095 74.6455L82.4892 75.6758C81.1142 80.2381 80.8596 82.0766 80.7958 89.5449C80.7755 91.9687 80.8117 94.3593 80.8857 96.2471C80.9227 97.1931 80.9687 97.9885 81.0185 98.5869C81.0778 99.301 81.1233 99.4559 81.0868 99.3262L81.5839 101.093L82.7509 105.24L78.4521 105.532L71.3124 106.018C66.8766 106.319 62.3262 106.323 58.744 106.093C56.9652 105.978 55.3356 105.801 54.0439 105.549C53.4084 105.425 52.742 105.261 52.1415 105.031C51.8402 104.916 51.4726 104.753 51.1044 104.521C50.7641 104.305 50.2168 103.901 49.787 103.226L49.786 103.225C49.325 102.499 49.0964 101.632 48.9735 101.037C48.7255 101.189 48.4594 101.354 48.1737 101.534C45.9858 102.913 43.7991 104.643 42.1923 106.176C41.7676 106.581 41.4033 106.955 41.1005 107.287C41.8839 107.675 43.0213 108.108 44.5634 108.536C45.4802 108.79 47.4733 109.073 50.411 109.308C53.2553 109.535 56.7394 109.701 60.4726 109.794C67.9553 109.98 76.2803 109.865 82.2831 109.386C108.023 107.33 144.311 100.595 168.356 93.4141H168.357C194.615 85.5729 211.984 78.5714 222.794 71.6699C224.575 70.5327 226.288 69.0736 227.52 67.7393C227.826 67.4088 228.085 67.1023 228.301 66.8271C227.779 66.5632 227.105 66.2768 226.285 65.9922C224.097 65.2333 221.331 64.6492 218.683 64.4639C218.726 64.6149 218.77 64.7738 218.818 64.9404C219.027 65.6646 219.195 66.7763 218.707 68.0098C218.269 69.1159 217.483 69.8474 216.888 70.3115C216.045 70.9682 214.807 71.6616 213.219 72.4727L211.515 73.3262C207.474 75.3249 203.271 77.1973 199.986 78.5098C198.354 79.1619 196.886 79.7011 195.752 80.0469C195.202 80.2145 194.619 80.3718 194.089 80.458C193.838 80.4988 193.446 80.5502 193.006 80.5303C192.811 80.5215 191.469 80.489 190.42 79.3672L190.419 79.3662C190.07 78.9927 189.858 78.6025 189.802 78.5C189.702 78.3199 189.614 78.1356 189.54 77.9746C189.39 77.6474 189.229 77.2591 189.071 76.8535C188.752 76.034 188.387 75.0019 188.045 73.9404C185.461 65.9285 181.527 59.2054 175.769 52.9893L175.207 52.3896C166.951 43.6998 153.82 37.0744 143.215 36.0713ZM96.5829 68.9336C98.5878 68.1064 101.192 67.9602 103.355 68.1074C105.501 68.2534 108.074 68.7459 109.925 69.8721L110.472 70.2207C121.703 77.7142 116.257 95.6863 102.6 95.6758C95.4239 95.6704 89.7558 90.8406 88.4179 83.7812C87.8602 80.8393 88.9519 77.5748 90.2909 75.1533C91.6375 72.7183 93.8209 70.0733 96.5829 68.9336ZM128.078 69.7705C130.544 68.2242 132.817 68.0033 136.186 68.1914C140.019 68.4053 143.452 69.6024 145.918 72.1602C148.393 74.7279 149.436 78.1918 149.439 82.0029C149.441 84.3671 149.049 86.5704 147.863 88.6338C146.705 90.6491 144.974 92.2065 142.897 93.6279C140.581 95.2128 137.606 95.7356 134.958 95.623C132.287 95.5094 129.376 94.728 127.111 93.0576L126.751 92.7822C119.32 86.9118 120.014 74.8298 128.077 69.7715L128.078 69.7705ZM45.9442 3.5C48.2983 3.51242 50.9702 3.92128 53.0663 4.97363C54.112 5.49843 55.2079 6.35149 56.1151 7.16602C57.0599 8.0142 58.0282 9.02709 58.7909 10.0322L59.1483 10.5107C59.967 11.6249 60.6667 12.7353 61.1093 14.0527C61.6146 15.5571 61.6913 17.0525 61.6913 18.6631C61.6913 21.2503 61.3651 23.597 60.4521 25.7705C59.5267 27.9732 58.1018 29.7519 56.2704 31.3555C46.1212 40.2443 29.9874 32.6503 29.9872 19.2559C29.9872 12.9993 33.2509 7.90762 38.8661 4.94824C40.9279 3.8617 43.6118 3.48771 45.9442 3.5Z" fill="#4C00FF" stroke="white" stroke-width="7"/>
</svg>
