<svg width="622" height="159" viewBox="0 0 622 159" fill="none" xmlns="http://www.w3.org/2000/svg">
<path d="M0 104.05C0 102.35 0.1 100.7 0.3 99.1C0.6 97.4 0.95 95.7 1.35 94C1.85 91.3 2.4 88.75 3 86.35C3.7 83.85 4.35 81.4 4.95 79C5.55 76.5 6.05 73.95 6.45 71.35C6.85 68.75 7.05 66 7.05 63.1C7.05 61.6 6.8 59.9 6.3 58C5.8 56.0999 5.3 54.1499 4.8 52.1499C4.3 50.15 3.85 48.2 3.45 46.3C3.05 44.4 2.95 42.7 3.15 41.1999C3.75 36.4999 5.35 32.65 7.95 29.65C10.65 26.6499 14.65 25.1499 19.95 25.1499C26.15 25.1499 30.85 27.1999 34.05 31.2999C37.35 35.4 39 40.75 39 47.3499C39 49.55 38.75 51.65 38.25 53.6499C37.75 55.5499 37.2 57.5 36.6 59.5C36 61.4 35.45 63.35 34.95 65.3499C34.45 67.25 34.2 69.3 34.2 71.5C34.2 73.9 34.55 76.5 35.25 79.3C35.95 82.1 37 84.65 38.4 86.95C39.9 89.25 41.7 91.2 43.8 92.8C46 94.3 48.55 95.0499 51.45 95.0499C54.45 95.0499 56.95 94.2499 58.95 92.6499C60.95 91.0499 62.55 89.05 63.75 86.65C65.05 84.25 65.95 81.65 66.45 78.8499C66.95 76.0499 67.2 73.45 67.2 71.05C67.2 68.55 66.9 66.15 66.3 63.85C65.7 61.55 65 59.3 64.2 57.0999C63.5 54.9 62.85 52.65 62.25 50.35C61.65 48.05 61.35 45.65 61.35 43.15C61.35 40.65 61.6 38 62.1 35.2C62.6 32.2999 63.45 29.6499 64.65 27.2499C65.85 24.75 67.45 22.7 69.45 21.0999C71.55 19.4999 74.15 18.7 77.25 18.7C82.45 18.7 86.85 20.4 90.45 23.7999C94.15 27.2 96.7 31.65 98.1 37.1499C98.5 38.55 98.6 40.25 98.4 42.25C98.3 44.15 98.05 46.3 97.65 48.6999C97.25 50.9999 96.85 53.4 96.45 55.9C96.15 58.4 96 60.95 96 63.5499C96 66.05 96.3 68.7 96.9 71.5C97.5 74.2 98.15 77.1 98.85 80.2C99.65 83.2 100.35 86.35 100.95 89.65C101.55 92.85 101.85 96.2 101.85 99.7C101.85 105.5 100.45 110.7 97.65 115.3C94.95 119.9 91.2 123.8 86.4 127C81.7 130.2 76.15 132.65 69.75 134.35C63.45 136.05 56.75 136.9 49.65 136.9C42.55 136.9 35.95 136.35 29.85 135.25C23.85 134.25 18.6 132.5 14.1 130C9.7 127.4 6.25 124 3.75 119.8C1.25 115.6 0 110.35 0 104.05Z" fill="white"/>
<path d="M156.789 82.15C155.789 81.05 154.939 80.7 154.239 81.1C153.639 81.4 153.139 81.9999 152.739 82.8999C152.439 83.6999 152.239 84.6 152.139 85.6C152.039 86.6 151.989 87.25 151.989 87.55C151.989 89.65 152.239 91.7 152.739 93.7C153.239 95.7 153.789 97.7 154.389 99.7C154.989 101.7 155.539 103.7 156.039 105.7C156.539 107.7 156.789 109.75 156.789 111.85C156.789 115.85 156.539 119.25 156.039 122.05C155.539 124.75 154.539 127 153.039 128.8C151.539 130.5 149.439 131.75 146.739 132.55C144.039 133.25 140.489 133.6 136.089 133.6C129.289 133.6 124.439 131.9 121.539 128.5C118.639 125.1 117.189 120.1 117.189 113.5C117.189 109 117.689 104.6 118.689 100.3C119.789 95.8999 120.939 91.5999 122.139 87.3999C123.439 83.0999 124.589 78.8 125.589 74.5C126.689 70.1 127.239 65.65 127.239 61.1499C127.239 57.75 126.839 54.45 126.039 51.25C125.239 47.95 124.839 44.65 124.839 41.35C124.839 37.1499 126.139 33.6499 128.739 30.8499C131.339 28.0499 134.789 26.6499 139.089 26.6499C143.289 26.6499 147.089 27.9999 150.489 30.6999C153.889 33.3 157.039 36.6 159.939 40.5999C162.839 44.5999 165.439 48.9499 167.739 53.6499C170.139 58.35 172.339 62.7 174.339 66.7C176.339 70.7 178.189 74.05 179.889 76.75C181.589 79.35 183.239 80.65 184.839 80.65C185.539 80.65 186.089 80.4 186.489 79.9C186.989 79.4 187.339 78.85 187.539 78.25C187.839 77.55 188.039 76.85 188.139 76.15C188.239 75.35 188.289 74.7 188.289 74.2C188.289 72.1 187.989 70 187.389 67.9C186.889 65.8 186.339 63.6 185.739 61.3C185.139 59 184.539 56.6 183.939 54.1C183.439 51.5 183.189 48.7 183.189 45.7C183.189 43.3 183.439 41 183.939 38.8C184.539 36.5 185.489 34.5 186.789 32.7999C188.089 30.9999 189.839 29.5999 192.039 28.5999C194.239 27.5 196.989 26.95 200.289 26.95C207.089 26.95 212.189 28.35 215.589 31.15C218.989 33.85 220.689 38.35 220.689 44.6499C220.689 46.65 220.439 48.65 219.939 50.65C219.539 52.55 219.039 54.4999 218.439 56.4999C217.839 58.3999 217.289 60.35 216.789 62.35C216.389 64.35 216.189 66.35 216.189 68.35C216.189 70.75 216.389 73.15 216.789 75.55C217.289 77.85 217.789 80.2 218.289 82.6C218.889 84.9 219.389 87.2 219.789 89.5C220.289 91.8 220.539 94.1 220.539 96.4C220.539 102.7 220.139 108.2 219.339 112.9C218.639 117.5 217.289 121.35 215.289 124.45C213.289 127.55 210.489 129.9 206.889 131.5C203.389 133 198.839 133.75 193.239 133.75C189.239 133.75 185.789 132.75 182.889 130.75C179.989 128.65 177.489 126 175.389 122.8C173.289 119.6 171.489 116.05 169.989 112.15C168.489 108.15 167.039 104.25 165.639 100.45C164.239 96.55 162.839 93 161.439 89.7999C160.139 86.5 158.589 83.95 156.789 82.15Z" fill="white"/>
<path d="M263.92 25.6C268.12 25.6 271.87 25.9 275.17 26.4999C278.57 27.0999 281.42 28.2499 283.72 29.9499C286.12 31.55 287.97 33.8 289.27 36.7C290.57 39.5999 291.22 43.3 291.22 47.8C291.22 49.7 290.97 51.6 290.47 53.5C290.07 55.3 289.57 57.1 288.97 58.9C288.37 60.7 287.82 62.55 287.32 64.45C286.92 66.25 286.72 68.15 286.72 70.15C286.72 75.65 286.92 80.35 287.32 84.25C287.82 88.15 288.42 91.5499 289.12 94.45C289.92 97.2499 290.72 99.7 291.52 101.8C292.32 103.8 293.07 105.7 293.77 107.5C294.57 109.3 295.17 111.1 295.57 112.9C296.07 114.7 296.32 116.8 296.32 119.2C296.32 122.7 295.37 125.55 293.47 127.75C291.57 129.85 289.22 131.5 286.42 132.7C283.72 133.9 280.77 134.7 277.57 135.1C274.47 135.5 271.62 135.7 269.02 135.7C265.92 135.7 262.52 135.5 258.82 135.1C255.12 134.8 251.67 134.05 248.47 132.85C245.37 131.55 242.77 129.7 240.67 127.3C238.57 124.9 237.52 121.6 237.52 117.4C237.52 114.1 238.12 110.75 239.32 107.35C240.62 103.95 242.02 100.6 243.52 97.3C245.02 93.9 246.37 90.55 247.57 87.25C248.87 83.85 249.52 80.55 249.52 77.35C249.52 74.65 249.12 72 248.32 69.4C247.62 66.7 246.82 64.1 245.92 61.6C245.12 59 244.32 56.3999 243.52 53.8C242.82 51.1 242.47 48.4 242.47 45.7C242.47 43.1999 242.92 40.7499 243.82 38.3499C244.82 35.9499 246.22 33.8 248.02 31.9C249.92 30 252.17 28.4999 254.77 27.3999C257.47 26.1999 260.52 25.6 263.92 25.6Z" fill="white"/>
<path d="M352.736 112.15C352.736 113.65 353.036 115.3 353.636 117.1C354.336 118.8 354.686 120.7 354.686 122.8C354.686 128.2 353.236 132.45 350.336 135.55C347.536 138.65 343.386 140.2 337.886 140.2C333.286 140.2 329.186 139.4 325.586 137.8C322.086 136.2 319.136 134 316.736 131.2C314.336 128.4 312.486 125.1 311.186 121.3C309.986 117.5 309.386 113.45 309.386 109.15C309.386 105.35 309.836 101.7 310.736 98.2C311.636 94.6 312.636 91.05 313.736 87.55C314.836 84.05 315.836 80.5499 316.736 77.0499C317.636 73.55 318.086 69.9999 318.086 66.3999C318.086 63.9999 317.786 61.65 317.186 59.35C316.586 56.95 315.886 54.5999 315.086 52.2999C314.386 49.9999 313.686 47.6999 312.986 45.3999C312.386 43.0999 312.086 40.6999 312.086 38.2C312.086 35.9999 312.786 34.1999 314.186 32.7999C315.586 31.3999 317.336 30.2499 319.436 29.3499C321.636 28.3499 324.086 27.6499 326.786 27.2499C329.586 26.7499 332.286 26.4 334.886 26.2C337.586 25.9999 340.086 25.8999 342.386 25.8999C344.786 25.8999 346.736 25.8999 348.236 25.8999C355.936 25.8999 363.336 27.0999 370.436 29.4999C377.636 31.9 384.036 35.35 389.636 39.8499C395.236 44.3499 399.686 49.8 402.986 56.2C406.386 62.5 408.086 69.6 408.086 77.5C408.086 81.7 407.286 86 405.686 90.4C404.186 94.7 401.986 98.65 399.086 102.25C396.186 105.75 392.686 108.65 388.586 110.95C384.586 113.15 380.036 114.25 374.936 114.25C372.336 114.25 370.286 113.95 368.786 113.35C367.386 112.65 366.136 111.95 365.036 111.25C364.036 110.45 362.986 109.75 361.886 109.15C360.786 108.55 359.186 108.25 357.086 108.25C356.386 108.25 355.486 108.55 354.386 109.15C353.286 109.75 352.736 110.75 352.736 112.15ZM358.286 60.0999C355.686 60.0999 353.886 60.6999 352.886 61.8999C351.886 63.1 351.386 64.95 351.386 67.45C351.386 68.35 351.386 69.55 351.386 71.05C351.386 72.55 351.386 74.1 351.386 75.7C351.386 77.2 351.436 78.65 351.536 80.05C351.636 81.45 351.786 82.55 351.986 83.35C352.186 83.85 352.386 84.15 352.586 84.25C352.786 84.35 353.136 84.4 353.636 84.4C358.136 84.4 361.536 83 363.836 80.2C366.236 77.4 367.436 73.9 367.436 69.7C367.436 66.5 366.736 64.1 365.336 62.5C363.936 60.9 361.586 60.0999 358.286 60.0999Z" fill="white"/>
<path d="M536.362 21.6999C540.462 21.6999 543.962 23.2499 546.862 26.35C549.862 29.3499 552.313 32.7999 554.213 36.7C555.313 39.1 556.263 41.4999 557.062 43.8999C557.963 46.2999 558.912 48.4999 559.912 50.5C560.912 52.4 562.062 53.95 563.362 55.1499C564.762 56.35 566.463 56.95 568.463 56.95C570.563 56.95 572.313 56.35 573.713 55.1499C575.213 53.85 576.512 52.2 577.612 50.1999C578.812 48.1999 579.912 46 580.912 43.6C582.012 41.0999 583.162 38.6499 584.362 36.2499C585.362 34.4499 586.413 32.7 587.513 31C588.713 29.3 590.063 27.8499 591.562 26.6499C593.163 25.3499 594.963 24.3499 596.963 23.65C598.963 22.8499 601.262 22.4499 603.862 22.4499C609.562 22.4499 613.962 24.4999 617.062 28.5999C620.163 32.6 621.713 37.65 621.713 43.75C621.713 47.85 621.012 51.45 619.612 54.55C618.212 57.55 616.413 60.2499 614.213 62.65C612.113 65.05 609.713 67.1999 607.013 69.0999C604.413 71 601.813 72.85 599.213 74.65C595.513 77.25 592.562 79.9 590.362 82.6C588.162 85.2 587.062 88.45 587.062 92.35C587.062 93.35 587.313 94.65 587.812 96.25C588.312 97.75 588.863 99.45 589.463 101.35C590.163 103.25 590.763 105.25 591.263 107.35C591.763 109.45 592.013 111.6 592.013 113.8C592.013 116.6 591.413 119.4 590.213 122.2C589.013 124.9 587.363 127.35 585.263 129.55C583.163 131.65 580.663 133.35 577.763 134.65C574.963 135.95 571.863 136.6 568.463 136.6C565.063 136.6 562.013 135.95 559.312 134.65C556.612 133.35 554.263 131.6 552.263 129.4C550.363 127.1 548.863 124.45 547.763 121.45C546.763 118.45 546.263 115.3 546.263 112C546.263 110.6 546.562 109.1 547.162 107.5C547.762 105.8 548.363 104.1 548.963 102.4C549.663 100.6 550.312 98.8 550.912 97C551.512 95.2 551.812 93.4 551.812 91.6C551.812 90.4 551.762 89.15 551.662 87.85C551.662 86.55 551.463 85.25 551.062 83.95C550.663 82.65 549.963 81.35 548.963 80.05C548.063 78.75 546.763 77.5 545.062 76.3C541.863 74.1 538.562 71.95 535.162 69.8499C531.762 67.65 528.613 65.25 525.713 62.65C522.913 60.0499 520.613 57.15 518.812 53.95C517.012 50.65 516.112 46.75 516.112 42.25C516.112 39.45 516.663 36.8 517.763 34.2999C518.863 31.7999 520.312 29.65 522.112 27.8499C524.012 25.95 526.162 24.45 528.562 23.35C531.062 22.2499 533.662 21.6999 536.362 21.6999Z" fill="white"/>
<path d="M453.23 3.93164C459.961 2.72322 471.831 2.72309 478.825 3.91797C498.521 7.28417 516.19 18.0848 528.26 34.126L529.908 36.3184L535.406 36.5898C555.03 37.5602 563.486 38.9094 571.848 42.8555C575.695 44.6709 578.746 47.0163 580.648 50.001C582.593 53.0551 583.175 56.5292 582.485 60.2002C581.538 65.2376 577.853 70.1188 572.462 74.7354C567.003 79.4107 559.427 84.127 550.005 88.7617L542.401 92.502L541.171 97.4199C539.434 104.365 538.016 108.254 535.112 113.974C534.668 114.847 534.268 115.758 533.986 116.5C533.852 116.852 533.757 117.137 533.697 117.344C533.746 117.61 533.822 117.987 533.925 118.474C534.133 119.455 534.436 120.815 534.815 122.459C535.571 125.744 536.615 130.123 537.766 134.799C538.922 139.498 539.945 143.807 540.662 146.967C541.02 148.543 541.305 149.85 541.493 150.782C541.586 151.242 541.663 151.644 541.712 151.952C541.735 152.097 541.762 152.282 541.777 152.464C541.783 152.544 541.796 152.715 541.786 152.921C541.782 153.018 541.769 153.222 541.713 153.472C541.683 153.604 541.53 154.32 540.896 154.95L540.897 154.951C540.311 155.533 539.658 155.717 539.409 155.778C539.097 155.855 538.822 155.876 538.646 155.882C538.286 155.894 537.943 155.859 537.677 155.822C537.123 155.745 536.5 155.598 535.903 155.411L535.901 155.41C535.9 155.41 535.896 155.409 535.889 155.407C535.881 155.405 535.87 155.401 535.856 155.396C535.826 155.388 535.787 155.377 535.738 155.363C535.639 155.336 535.511 155.302 535.352 155.26C535.034 155.176 534.614 155.067 534.1 154.937C533.072 154.675 531.691 154.33 530.053 153.926C526.779 153.118 522.495 152.077 517.993 150.998L502.596 147.308L499.277 148.792C465.529 163.881 427.832 154.784 405.36 126.132L404.831 125.451L402.696 122.668H400.002C397.553 122.668 391.24 122.246 385.963 121.746C375.772 120.781 367.65 119.067 361.717 116.465C355.783 113.862 351.594 110.156 350.198 105.002C348.524 98.8264 351.791 92.5245 357.398 86.874C363.112 81.1146 371.914 75.3193 383.175 69.8818L390.479 66.3555L391.183 63.0771C392.973 54.7391 396.874 45.332 401.699 37.6582C402.927 35.7054 405.532 32.4758 408.107 29.5146C410.677 26.5584 413.497 23.5472 415.225 22.1055C426.886 12.3734 439.241 6.44298 453.23 3.93164ZM473.077 31.5098C465.518 30.7973 464.844 30.8009 461.118 31.2295C441.53 33.4817 425.733 46.5425 419.626 65.5225L419.342 66.4307C418.277 69.9523 417.972 71.6372 417.874 76.4102L417.844 78.6582C417.826 80.7928 417.858 82.8985 417.923 84.5615C417.956 85.3947 417.996 86.0959 418.04 86.624C418.08 87.0957 418.112 87.2942 418.114 87.3184L418.104 87.2891L418.542 88.8428L419.547 92.4014L415.859 92.6514L409.552 93.0791C405.638 93.3443 401.623 93.3469 398.464 93.1445C396.895 93.044 395.46 92.888 394.325 92.667C393.767 92.5582 393.184 92.4161 392.661 92.2168C392.399 92.1168 392.081 91.9759 391.763 91.7754C391.469 91.59 390.996 91.2427 390.625 90.6621V90.6611C390.192 89.9826 389.994 89.1569 389.893 88.6377C389.641 88.7903 389.366 88.9595 389.069 89.1465C387.131 90.3631 385.194 91.8908 383.771 93.2441C383.364 93.6312 383.019 93.9867 382.738 94.2988C383.44 94.656 384.479 95.0586 385.906 95.4531C386.726 95.6798 388.495 95.929 391.089 96.1357C393.604 96.3362 396.683 96.4829 399.982 96.5645C406.593 96.728 413.949 96.6274 419.256 96.2051C441.999 94.3952 474.058 88.465 495.304 82.1416L497.455 81.4971C519.452 74.8542 534.15 68.8834 543.41 62.9912V62.9902C544.99 61.985 546.509 60.6964 547.603 59.5166C547.9 59.1958 548.148 58.8991 548.351 58.6367C547.874 58.3899 547.246 58.1196 546.474 57.8525C544.499 57.1698 541.993 56.6469 539.607 56.4932C539.654 56.6585 539.704 56.835 539.758 57.0225C539.94 57.6511 540.084 58.6117 539.661 59.6768C539.282 60.6319 538.601 61.2649 538.08 61.6689C537.096 62.4327 535.493 63.2553 533.351 64.3115C529.784 66.0699 526.074 67.7178 523.175 68.8721C521.735 69.4456 520.441 69.9184 519.444 70.2217C518.96 70.3688 518.449 70.5063 517.988 70.5811C517.769 70.6165 517.43 70.6606 517.051 70.6436C516.882 70.636 515.734 70.6082 514.833 69.6494L514.832 69.6484C514.531 69.3275 514.349 68.9909 514.299 68.9014C514.213 68.745 514.135 68.5852 514.07 68.4443C513.938 68.1583 513.798 67.8182 513.658 67.4619C513.448 66.922 513.214 66.2764 512.983 65.5938L512.753 64.9014C510.394 57.6111 506.762 51.5296 501.396 45.9014C494.319 38.4783 483.194 32.7615 473.964 31.6064L473.077 31.5098ZM431.917 60.5898C433.668 59.8701 435.949 59.741 437.854 59.8701C439.743 59.9982 441.997 60.4296 443.613 61.4092H443.612C454.112 67.773 449.335 83.9849 437.195 83.9756C430.909 83.9709 425.934 79.7561 424.758 73.5732C424.27 71.0068 425.226 68.1509 426.405 66.0264C427.591 63.889 429.506 61.5813 431.917 60.5898ZM459.75 61.3193C461.904 59.9736 463.887 59.7792 466.854 59.9443L467.481 59.9893C470.594 60.2667 473.363 61.3177 475.386 63.4092C477.553 65.6499 478.471 68.6775 478.474 72.0205C478.476 74.0936 478.131 76.0192 477.093 77.8203C476.079 79.5796 474.561 80.9424 472.733 82.1895H472.732C470.708 83.5695 468.103 84.0273 465.779 83.9287C463.434 83.8293 460.884 83.1454 458.902 81.6885C452.049 76.6522 452.565 65.8112 459.75 61.3193ZM387.152 3C389.222 3.01092 391.565 3.36967 393.399 4.28711L393.398 4.28809C394.31 4.74456 395.271 5.48809 396.071 6.20312C396.902 6.9468 397.753 7.83413 398.423 8.71387C399.28 9.83851 400.017 10.9181 400.459 12.2314C400.902 13.5439 400.969 14.8504 400.969 16.2666C400.969 18.5381 400.682 20.5932 399.881 22.4941C399.069 24.4201 397.818 25.9761 396.208 27.3809C387.319 35.1394 373.15 28.5295 373.15 16.7881C373.15 11.3074 376.016 6.85213 380.947 4.2627C382.748 3.31682 385.1 2.98923 387.152 3Z" fill="#4C00FF" stroke="white" stroke-width="6"/>
</svg>
